<mxfile host="65bd71144e">
    <diagram id="9Vbu-5zCjFvRRccVLOa6" name="Page-1">
        <mxGraphModel dx="633" dy="475" grid="1" gridSize="10" guides="1" tooltips="1" connect="1" arrows="1" fold="1" page="1" pageScale="1" pageWidth="850" pageHeight="1100" background="none" math="0" shadow="0">
            <root>
                <mxCell id="0"/>
                <mxCell id="1" parent="0"/>
                <mxCell id="2" value="1" style="whiteSpace=wrap;html=1;aspect=fixed;" parent="1" vertex="1">
                    <mxGeometry x="200" y="160" width="40" height="40" as="geometry"/>
                </mxCell>
                <mxCell id="6" value="2" style="whiteSpace=wrap;html=1;aspect=fixed;" parent="1" vertex="1">
                    <mxGeometry x="240" y="160" width="40" height="40" as="geometry"/>
                </mxCell>
                <mxCell id="7" value="3" style="whiteSpace=wrap;html=1;aspect=fixed;" parent="1" vertex="1">
                    <mxGeometry x="280" y="160" width="40" height="40" as="geometry"/>
                </mxCell>
                <mxCell id="8" value="4" style="whiteSpace=wrap;html=1;aspect=fixed;" parent="1" vertex="1">
                    <mxGeometry x="200" y="200" width="40" height="40" as="geometry"/>
                </mxCell>
                <mxCell id="9" value="5" style="whiteSpace=wrap;html=1;aspect=fixed;" parent="1" vertex="1">
                    <mxGeometry x="240" y="200" width="40" height="40" as="geometry"/>
                </mxCell>
                <mxCell id="10" value="6" style="whiteSpace=wrap;html=1;aspect=fixed;" parent="1" vertex="1">
                    <mxGeometry x="280" y="200" width="40" height="40" as="geometry"/>
                </mxCell>
                <mxCell id="11" value="9" style="whiteSpace=wrap;html=1;aspect=fixed;" parent="1" vertex="1">
                    <mxGeometry x="280" y="240" width="40" height="40" as="geometry"/>
                </mxCell>
                <mxCell id="12" value="8" style="whiteSpace=wrap;html=1;aspect=fixed;" parent="1" vertex="1">
                    <mxGeometry x="240" y="240" width="40" height="40" as="geometry"/>
                </mxCell>
                <mxCell id="13" value="7" style="whiteSpace=wrap;html=1;aspect=fixed;" parent="1" vertex="1">
                    <mxGeometry x="200" y="240" width="40" height="40" as="geometry"/>
                </mxCell>
                <mxCell id="14" value="Tic&amp;nbsp; Tac Toe" style="text;html=1;align=center;verticalAlign=middle;resizable=0;points=[];autosize=1;strokeColor=none;fillColor=none;fontSize=16;" parent="1" vertex="1">
                    <mxGeometry x="200" y="50" width="110" height="30" as="geometry"/>
                </mxCell>
                <mxCell id="16" value="&lt;font style=&quot;font-size: 13px;&quot;&gt;Reset&lt;/font&gt;" style="rounded=1;whiteSpace=wrap;html=1;fontSize=16;" parent="1" vertex="1">
                    <mxGeometry x="400" y="200" width="50" height="30" as="geometry"/>
                </mxCell>
                <mxCell id="17" value="Player 1" style="rounded=0;whiteSpace=wrap;html=1;fontSize=13;" parent="1" vertex="1">
                    <mxGeometry x="10" y="80" width="100" height="40" as="geometry"/>
                </mxCell>
                <mxCell id="18" value="Player 2" style="rounded=0;whiteSpace=wrap;html=1;fontSize=13;" parent="1" vertex="1">
                    <mxGeometry x="420" y="80" width="110" height="40" as="geometry"/>
                </mxCell>
                <mxCell id="19" value="Start/Stop/Resume" style="rounded=1;whiteSpace=wrap;html=1;fontSize=13;" parent="1" vertex="1">
                    <mxGeometry x="40" y="200" width="120" height="30" as="geometry"/>
                </mxCell>
                <mxCell id="20" value="1.) Design&amp;nbsp;" style="text;html=1;align=center;verticalAlign=middle;resizable=0;points=[];autosize=1;strokeColor=none;fillColor=none;fontSize=13;" parent="1" vertex="1">
                    <mxGeometry x="860" y="330" width="90" height="30" as="geometry"/>
                </mxCell>
                <mxCell id="22" value="1.) Design Tic Tac Toe Game using HTML and CSS" style="text;html=1;align=center;verticalAlign=middle;resizable=0;points=[];autosize=1;strokeColor=none;fillColor=none;fontSize=13;" parent="1" vertex="1">
                    <mxGeometry x="5" y="360" width="320" height="30" as="geometry"/>
                </mxCell>
                <mxCell id="24" value="Logic&lt;br&gt;---------&lt;br&gt;&lt;br&gt;1.) Input player's name e.g. Player 1 and Player 2&lt;br&gt;&lt;br&gt;2.) 'X' is assign to the Player1 and 'O' assign to Player2&lt;br&gt;&lt;br&gt;3.) Winner Patterns&lt;br&gt;&amp;nbsp; &amp;nbsp; &amp;nbsp;----------------------&lt;br&gt;&amp;nbsp; &amp;nbsp; &amp;nbsp; 1.)&lt;span style=&quot;white-space: pre;&quot;&gt;&#9;&lt;/span&gt;1&lt;span style=&quot;white-space: pre;&quot;&gt;&#9;&lt;/span&gt;2,&amp;nbsp; &amp;nbsp; 3&lt;br&gt;&amp;nbsp; &amp;nbsp; &amp;nbsp; 2.)&lt;span style=&quot;white-space: pre;&quot;&gt;&#9;&lt;/span&gt;1&lt;span style=&quot;white-space: pre;&quot;&gt;&#9;&lt;/span&gt;4&lt;span style=&quot;white-space: pre;&quot;&gt;&#9;&lt;/span&gt;7&lt;br&gt;&amp;nbsp; &amp;nbsp; &amp;nbsp; 3.)&lt;span style=&quot;white-space: pre;&quot;&gt;&#9;&lt;/span&gt;1&lt;span style=&quot;white-space: pre;&quot;&gt;&#9;&lt;/span&gt;5&lt;span style=&quot;white-space: pre;&quot;&gt;&#9;&lt;/span&gt;9&lt;br&gt;&amp;nbsp; &amp;nbsp; &amp;nbsp; 4.)&lt;span style=&quot;white-space: pre;&quot;&gt;&#9;&lt;/span&gt;2&lt;span style=&quot;white-space: pre;&quot;&gt;&#9;&lt;/span&gt;5&lt;span style=&quot;white-space: pre;&quot;&gt;&#9;&lt;/span&gt;8&lt;br&gt;&amp;nbsp; &amp;nbsp; &amp;nbsp; 5.)&lt;span style=&quot;white-space: pre;&quot;&gt;&#9;&lt;/span&gt;3&lt;span style=&quot;white-space: pre;&quot;&gt;&#9;&lt;/span&gt;6&lt;span style=&quot;white-space: pre;&quot;&gt;&#9;&lt;/span&gt;9&lt;br&gt;&amp;nbsp; &amp;nbsp; &amp;nbsp; 6.)&amp;nbsp;&lt;span style=&quot;white-space: pre;&quot;&gt;&#9;&lt;/span&gt;3&lt;span style=&quot;white-space: pre;&quot;&gt;&#9;&lt;/span&gt;5&lt;span style=&quot;white-space: pre;&quot;&gt;&#9;&lt;/span&gt;7&lt;br&gt;&amp;nbsp; &amp;nbsp; &amp;nbsp; 7.)&lt;span style=&quot;white-space: pre;&quot;&gt;&#9;&lt;/span&gt;4&lt;span style=&quot;white-space: pre;&quot;&gt;&#9;&lt;/span&gt;5&lt;span style=&quot;white-space: pre;&quot;&gt;&#9;&lt;/span&gt;6&lt;br&gt;&amp;nbsp; &amp;nbsp; &amp;nbsp; 8.)&lt;span style=&quot;white-space: pre;&quot;&gt;&#9;&lt;/span&gt;7&lt;span style=&quot;white-space: pre;&quot;&gt;&#9;&lt;/span&gt;8&lt;span style=&quot;white-space: pre;&quot;&gt;&#9;&lt;/span&gt;9&lt;br&gt;&lt;br&gt;4.) Player1 will get the first turn means First click print 'X' and second click 'O'&lt;br&gt;&lt;br&gt;5.) Second click is not allowed for same button until click on 'Reset' button&lt;br&gt;&lt;br&gt;6.) To start the game click on 'Start' button and click 'Stop' button to pause the game&lt;br&gt;&lt;br&gt;7.) If any player match the pattern then stop the game and announce the winner name" style="text;html=1;align=left;verticalAlign=top;whiteSpace=wrap;rounded=0;fontSize=13;" parent="1" vertex="1">
                    <mxGeometry x="20" y="400" width="600" height="708" as="geometry"/>
                </mxCell>
                <mxCell id="25" value="Notification" style="rounded=1;whiteSpace=wrap;html=1;" vertex="1" parent="1">
                    <mxGeometry x="70" y="130" width="490" height="20" as="geometry"/>
                </mxCell>
            </root>
        </mxGraphModel>
    </diagram>
</mxfile>